# xmcd CD database file
#
# Track frame offsets:
#	150
#	16105
#	30075
#	43336
#	55424
#
# Disc length: 867 seconds
#
# Revision: 0
# Processed by: cddbd v1.5PL3 Copyright (c) Steve Scherf et al.
# Submitted via: CDex 1.50
#
DISCID=33036105
DTITLE=Hank Crane - Hank Crane
DYEAR=1997
DGENRE=Country
TTITLE0=A Man Like Me
TTITLE1=Silent One
TTITLE2=One More Time
TTITLE3=My Heart Calls Out To You
TTITLE4=Dead Horse Town
EXTD=YEAR: 1997
EXTT0=
EXTT1=
EXTT2=
EXTT3=
EXTT4=
PLAYORDER=
